paper_minjerk_10cycles
version=1
nRows=449
nColumns=3
inDegrees=yes
endheader
time	r_shoulder_elev	r_elbow_flex
30.0000	0.000000	0.000000
30.0100	0.000000	0.000235
30.0200	0.000000	0.001859
30.0300	0.000000	0.006210
30.0400	0.000000	0.014570
30.0500	0.000000	0.028168
30.0600	0.000000	0.048177
30.0700	0.000000	0.075719
30.0800	0.000000	0.111861
30.0900	0.000000	0.157621
30.1000	0.000000	0.213965
30.1100	0.000000	0.281810
30.1200	0.000000	0.362021
30.1300	0.000000	0.455417
30.1400	0.000000	0.562769
30.1500	0.000000	0.684800
30.1600	0.000000	0.822187
30.1700	0.000000	0.975562
30.1800	0.000000	1.145512
30.1900	0.000000	1.332579
30.2000	0.000000	1.537264
30.2100	0.000000	1.760024
30.2200	0.000000	2.001273
30.2300	0.000000	2.261387
30.2400	0.000000	2.540700
30.2500	0.000000	2.839506
30.2600	0.000000	3.158063
30.2700	0.000000	3.496587
30.2800	0.000000	3.855261
30.2900	0.000000	4.234229
30.3000	0.000000	4.633600
30.3100	0.000000	5.053448
30.3200	0.000000	5.493813
30.3300	0.000000	5.954702
30.3400	0.000000	6.436089
30.3500	0.000000	6.937916
30.3600	0.000000	7.460094
30.3700	0.000000	8.002504
30.3800	0.000000	8.564996
30.3900	0.000000	9.147394
30.4000	0.000000	9.749491
30.4100	0.000000	10.371055
30.4200	0.000000	11.011826
30.4300	0.000000	11.671518
30.4400	0.000000	12.349821
30.4500	0.000000	13.046400
30.4600	0.000000	13.760897
30.4700	0.000000	14.492932
30.4800	0.000000	15.242101
30.4900	0.000000	16.007979
30.5000	0.000000	16.790123
30.5100	0.000000	17.588068
30.5200	0.000000	18.401331
30.5300	0.000000	19.229409
30.5400	0.000000	20.071784
30.5500	0.000000	20.927921
30.5600	0.000000	21.797267
30.5700	0.000000	22.679256
30.5800	0.000000	23.573307
30.5900	0.000000	24.478824
30.6000	0.000000	25.395200
30.6100	0.000000	26.321815
30.6200	0.000000	27.258038
30.6300	0.000000	28.203227
30.6400	0.000000	29.156730
30.6500	0.000000	30.117886
30.6600	0.000000	31.086027
30.6700	0.000000	32.060474
30.6800	0.000000	33.040546
30.6900	0.000000	34.025551
30.7000	0.000000	35.014795
30.7100	0.000000	36.007579
30.7200	0.000000	37.003198
30.7300	0.000000	38.000948
30.7400	0.000000	39.000119
30.7500	0.000000	40.000000
30.7600	0.000000	40.999881
30.7700	0.000000	41.999052
30.7800	0.000000	42.996802
30.7900	0.000000	43.992421
30.8000	0.000000	44.985205
30.8100	0.000000	45.974449
30.8200	0.000000	46.959454
30.8300	0.000000	47.939526
30.8400	0.000000	48.913973
30.8500	0.000000	49.882114
30.8600	0.000000	50.843270
30.8700	0.000000	51.796773
30.8800	0.000000	52.741962
30.8900	0.000000	53.678185
30.9000	0.000000	54.604800
30.9100	0.000000	55.521176
30.9200	0.000000	56.426693
30.9300	0.000000	57.320744
30.9400	0.000000	58.202733
30.9500	0.000000	59.072079
30.9600	0.000000	59.928216
30.9700	0.000000	60.770591
30.9800	0.000000	61.598669
30.9900	0.000000	62.411932
31.0000	0.000000	63.209877
31.0100	0.000000	63.992021
31.0200	0.000000	64.757899
31.0300	0.000000	65.507068
31.0400	0.000000	66.239103
31.0500	0.000000	66.953600
31.0600	0.000000	67.650179
31.0700	0.000000	68.328482
31.0800	0.000000	68.988174
31.0900	0.000000	69.628945
31.1000	0.000000	70.250509
31.1100	0.000000	70.852606
31.1200	0.000000	71.435004
31.1300	0.000000	71.997496
31.1400	0.000000	72.539906
31.1500	0.000000	73.062084
31.1600	0.000000	73.563911
31.1700	0.000000	74.045298
31.1800	0.000000	74.506187
31.1900	0.000000	74.946552
31.2000	0.000000	75.366400
31.2100	0.000000	75.765771
31.2200	0.000000	76.144739
31.2300	0.000000	76.503413
31.2400	0.000000	76.841937
31.2500	0.000000	77.160494
31.2600	0.000000	77.459300
31.2700	0.000000	77.738613
31.2800	0.000000	77.998727
31.2900	0.000000	78.239976
31.3000	0.000000	78.462736
31.3100	0.000000	78.667421
31.3200	0.000000	78.854488
31.3300	0.000000	79.024438
31.3400	0.000000	79.177813
31.3500	0.000000	79.315200
31.3600	0.000000	79.437231
31.3700	0.000000	79.544583
31.3800	0.000000	79.637979
31.3900	0.000000	79.718190
31.4000	0.000000	79.786035
31.4100	0.000000	79.842379
31.4200	0.000000	79.888139
31.4300	0.000000	79.924281
31.4400	0.000000	79.951823
31.4500	0.000000	79.971832
31.4600	0.000000	79.985430
31.4700	0.000000	79.993790
31.4800	0.000000	79.998141
31.4900	0.000000	79.999765
31.5000	0.000000	80.000000
31.5100	0.000000	80.000000
31.5200	0.000000	80.000000
31.5300	0.000000	80.000000
31.5400	0.000000	80.000000
31.5500	0.000000	80.000000
31.5600	0.000000	80.000000
31.5700	0.000000	80.000000
31.5800	0.000000	80.000000
31.5900	0.000000	80.000000
31.6000	0.000000	80.000000
31.6100	0.000000	80.000000
31.6200	0.000000	80.000000
31.6300	0.000000	80.000000
31.6400	0.000000	80.000000
31.6500	0.000000	80.000000
31.6600	0.000000	80.000000
31.6700	0.000000	80.000000
31.6800	0.000000	80.000000
31.6900	0.000000	80.000000
31.7000	0.000000	80.000000
31.7100	0.000000	80.000000
31.7200	0.000000	80.000000
31.7300	0.000000	80.000000
31.7400	0.000000	80.000000
31.7500	0.000000	80.000000
31.7600	0.000000	80.000000
31.7700	0.000000	80.000000
31.7800	0.000000	80.000000
31.7900	0.000000	80.000000
31.8000	0.000000	80.000000
31.8100	0.000000	80.000000
31.8200	0.000000	80.000000
31.8300	0.000000	80.000000
31.8400	0.000000	80.000000
31.8500	0.000000	80.000000
31.8600	0.000000	80.000000
31.8700	0.000000	80.000000
31.8800	0.000000	80.000000
31.8900	0.000000	80.000000
31.9000	0.000000	80.000000
31.9100	0.000000	80.000000
31.9200	0.000000	80.000000
31.9300	0.000000	80.000000
31.9400	0.000000	80.000000
31.9500	0.000000	80.000000
31.9600	0.000000	80.000000
31.9700	0.000000	80.000000
31.9800	0.000000	80.000000
31.9900	0.000000	80.000000
32.0000	0.000000	80.000000
32.0100	0.000000	80.000000
32.0200	0.000000	80.000000
32.0300	0.000000	80.000000
32.0400	0.000000	80.000000
32.0500	0.000000	80.000000
32.0600	0.000000	80.000000
32.0700	0.000000	80.000000
32.0800	0.000000	80.000000
32.0900	0.000000	80.000000
32.1000	0.000000	80.000000
32.1100	0.000000	80.000000
32.1200	0.000000	80.000000
32.1300	0.000000	80.000000
32.1400	0.000000	80.000000
32.1500	0.000000	80.000000
32.1600	0.000000	80.000000
32.1700	0.000000	80.000000
32.1800	0.000000	80.000000
32.1900	0.000000	80.000000
32.2000	0.000000	80.000000
32.2100	0.000000	80.000000
32.2200	0.000000	80.000000
32.2300	0.000000	80.000000
32.2400	0.000000	80.000000
32.2500	0.000000	80.000000
32.2600	0.000000	80.000000
32.2700	0.000000	80.000000
32.2800	0.000000	80.000000
32.2900	0.000000	80.000000
32.3000	0.000000	80.000000
32.3100	0.000000	80.000000
32.3200	0.000000	80.000000
32.3300	0.000000	80.000000
32.3400	0.000000	80.000000
32.3500	0.000000	80.000000
32.3600	0.000000	80.000000
32.3700	0.000000	80.000000
32.3800	0.000000	80.000000
32.3900	0.000000	80.000000
32.4000	0.000000	80.000000
32.4100	0.000000	80.000000
32.4200	0.000000	80.000000
32.4300	0.000000	80.000000
32.4400	0.000000	80.000000
32.4500	0.000000	80.000000
32.4600	0.000000	80.000000
32.4700	0.000000	80.000000
32.4800	0.000000	80.000000
32.4900	0.000000	80.000000
32.5000	0.000000	80.000000
32.5100	0.000000	79.999765
32.5200	0.000000	79.998141
32.5300	0.000000	79.993790
32.5400	0.000000	79.985430
32.5500	0.000000	79.971832
32.5600	0.000000	79.951823
32.5700	0.000000	79.924281
32.5800	0.000000	79.888139
32.5900	0.000000	79.842379
32.6000	0.000000	79.786035
32.6100	0.000000	79.718190
32.6200	0.000000	79.637979
32.6300	0.000000	79.544583
32.6400	0.000000	79.437231
32.6500	0.000000	79.315200
32.6600	0.000000	79.177813
32.6700	0.000000	79.024438
32.6800	0.000000	78.854488
32.6900	0.000000	78.667421
32.7000	0.000000	78.462736
32.7100	0.000000	78.239976
32.7200	0.000000	77.998727
32.7300	0.000000	77.738613
32.7400	0.000000	77.459300
32.7500	0.000000	77.160494
32.7600	0.000000	76.841937
32.7700	0.000000	76.503413
32.7800	0.000000	76.144739
32.7900	0.000000	75.765771
32.8000	0.000000	75.366400
32.8100	0.000000	74.946552
32.8200	0.000000	74.506187
32.8300	0.000000	74.045298
32.8400	0.000000	73.563911
32.8500	0.000000	73.062084
32.8600	0.000000	72.539906
32.8700	0.000000	71.997496
32.8800	0.000000	71.435004
32.8900	0.000000	70.852606
32.9000	0.000000	70.250509
32.9100	0.000000	69.628945
32.9200	0.000000	68.988174
32.9300	0.000000	68.328482
32.9400	0.000000	67.650179
32.9500	0.000000	66.953600
32.9600	0.000000	66.239103
32.9700	0.000000	65.507068
32.9800	0.000000	64.757899
32.9900	0.000000	63.992021
33.0000	0.000000	63.209877
33.0100	0.000000	62.411932
33.0200	0.000000	61.598669
33.0300	0.000000	60.770591
33.0400	0.000000	59.928216
33.0500	0.000000	59.072079
33.0600	0.000000	58.202733
33.0700	0.000000	57.320744
33.0800	0.000000	56.426693
33.0900	0.000000	55.521176
33.1000	0.000000	54.604800
33.1100	0.000000	53.678185
33.1200	0.000000	52.741962
33.1300	0.000000	51.796773
33.1400	0.000000	50.843270
33.1500	0.000000	49.882114
33.1600	0.000000	48.913973
33.1700	0.000000	47.939526
33.1800	0.000000	46.959454
33.1900	0.000000	45.974449
33.2000	0.000000	44.985205
33.2100	0.000000	43.992421
33.2200	0.000000	42.996802
33.2300	0.000000	41.999052
33.2400	0.000000	40.999881
33.2500	0.000000	40.000000
33.2600	0.000000	39.000119
33.2700	0.000000	38.000948
33.2800	0.000000	37.003198
33.2900	0.000000	36.007579
33.3000	0.000000	35.014795
33.3100	0.000000	34.025551
33.3200	0.000000	33.040546
33.3300	0.000000	32.060474
33.3400	0.000000	31.086027
33.3500	0.000000	30.117886
33.3600	0.000000	29.156730
33.3700	0.000000	28.203227
33.3800	0.000000	27.258038
33.3900	0.000000	26.321815
33.4000	0.000000	25.395200
33.4100	0.000000	24.478824
33.4200	0.000000	23.573307
33.4300	0.000000	22.679256
33.4400	0.000000	21.797267
33.4500	0.000000	20.927921
33.4600	0.000000	20.071784
33.4700	0.000000	19.229409
33.4800	0.000000	18.401331
33.4900	0.000000	17.588068
33.5000	0.000000	16.790123
33.5100	0.000000	16.007979
33.5200	0.000000	15.242101
33.5300	0.000000	14.492932
33.5400	0.000000	13.760897
33.5500	0.000000	13.046400
33.5600	0.000000	12.349821
33.5700	0.000000	11.671518
33.5800	0.000000	11.011826
33.5900	0.000000	10.371055
33.6000	0.000000	9.749491
33.6100	0.000000	9.147394
33.6200	0.000000	8.564996
33.6300	0.000000	8.002504
33.6400	0.000000	7.460094
33.6500	0.000000	6.937916
33.6600	0.000000	6.436089
33.6700	0.000000	5.954702
33.6800	0.000000	5.493813
33.6900	0.000000	5.053448
33.7000	0.000000	4.633600
33.7100	0.000000	4.234229
33.7200	0.000000	3.855261
33.7300	0.000000	3.496587
33.7400	0.000000	3.158063
33.7500	0.000000	2.839506
33.7600	0.000000	2.540700
33.7700	0.000000	2.261387
33.7800	0.000000	2.001273
33.7900	0.000000	1.760024
33.8000	0.000000	1.537264
33.8100	0.000000	1.332579
33.8200	0.000000	1.145512
33.8300	0.000000	0.975562
33.8400	0.000000	0.822187
33.8500	0.000000	0.684800
33.8600	0.000000	0.562769
33.8700	0.000000	0.455417
33.8800	0.000000	0.362021
33.8900	0.000000	0.281810
33.9000	0.000000	0.213965
33.9100	0.000000	0.157621
33.9200	0.000000	0.111861
33.9300	0.000000	0.075719
33.9400	0.000000	0.048177
33.9500	0.000000	0.028168
33.9600	0.000000	0.014570
33.9700	0.000000	0.006210
33.9800	0.000000	0.001859
33.9900	0.000000	0.000235
34.0000	0.000000	0.000000
34.0100	0.000000	0.000000
34.0200	0.000000	0.000000
34.0300	0.000000	0.000000
34.0400	0.000000	0.000000
34.0500	0.000000	0.000000
34.0600	0.000000	0.000000
34.0700	0.000000	0.000000
34.0800	0.000000	0.000000
34.0900	0.000000	0.000000
34.1000	0.000000	0.000000
34.1100	0.000000	0.000000
34.1200	0.000000	0.000000
34.1300	0.000000	0.000000
34.1400	0.000000	0.000000
34.1500	0.000000	0.000000
34.1600	0.000000	0.000000
34.1700	0.000000	0.000000
34.1800	0.000000	0.000000
34.1900	0.000000	0.000000
34.2000	0.000000	0.000000
34.2100	0.000000	0.000000
34.2200	0.000000	0.000000
34.2300	0.000000	0.000000
34.2400	0.000000	0.000000
34.2500	0.000000	0.000000
34.2600	0.000000	0.000000
34.2700	0.000000	0.000000
34.2800	0.000000	0.000000
34.2900	0.000000	0.000000
34.3000	0.000000	0.000000
34.3100	0.000000	0.000000
34.3200	0.000000	0.000000
34.3300	0.000000	0.000000
34.3400	0.000000	0.000000
34.3500	0.000000	0.000000
34.3600	0.000000	0.000000
34.3700	0.000000	0.000000
34.3800	0.000000	0.000000
34.3900	0.000000	0.000000
34.4000	0.000000	0.000000
34.4100	0.000000	0.000000
34.4200	0.000000	0.000000
34.4300	0.000000	0.000000
34.4400	0.000000	0.000000
34.4500	0.000000	0.000000
34.4600	0.000000	0.000000
34.4700	0.000000	0.000000
34.4800	0.000000	0.000000
